KRSPY-parametric-NarrowBlackMaxGrade-minXOPQ.ufo
<glyph name="two" format="2">
  <advance width="119.0"/>
  <unicode hex="0032"/>
  <outline>
    <contour>
      <point x="12.0" y="0.0" type="line"/>
      <point x="108.0" y="0.0" type="line" identifier="pzdvPTirLJ"/>
      <point x="108.0" y="458.036036036036" type="line" identifier="91SxUS0iwG"/>
      <point x="106.0" y="458.036036036036" type="line" identifier="fP7EN0pUcl"/>
      <point x="106.0" y="453.7117117117117" type="line" identifier="eb458Bdvng"/>
      <point x="14.0" y="453.7117117117117" type="line"/>
      <point x="14.0" y="516.7747747747748" type="line" identifier="9fjc25rkUx"/>
      <point x="103.01801801801801" y="961.8018018018017" type="line" identifier="yyb1NCCI5w"/>
      <point x="103.01801801801801" y="1600.0" type="line" identifier="5FogYRSgkk"/>
      <point x="15.0" y="1600.0" type="line" identifier="svlFvrau4c"/>
      <point x="15.0" y="957.3873873873874" type="line" identifier="LQ9fBsTy9K"/>
      <point x="17.0" y="957.3873873873874" type="line" identifier="jS6EyIAKtm"/>
      <point x="17.0" y="1146.2882882882882" type="line"/>
      <point x="101.01801801801801" y="1146.2882882882882" type="line" identifier="N6CMAjhNlU"/>
      <point x="101.01801801801801" y="962.8018018018017" type="line" identifier="yK1d5IcluK"/>
      <point x="12.0" y="518.7747747747748" type="line" identifier="teVKnpBcVb"/>
    </contour>
  </outline>
</glyph>
<glyph name="four" format="2">
  <advance width="115.0"/>
  <unicode hex="0034"/>
  <outline>
    <contour>
      <point x="82.0" y="0.0" type="line"/>
      <point x="84.0" y="0.0" type="line"/>
      <point x="84.0" y="556.6846846846847" type="line"/>
      <point x="113.0" y="556.6846846846847" type="line"/>
      <point x="113.0" y="1010.3963963963964" type="line"/>
      <point x="84.0" y="1010.3963963963964" type="line"/>
      <point x="84.0" y="1600.0" type="line"/>
      <point x="82.0" y="1600.0" type="line"/>
      <point x="82.0" y="1010.3963963963964" type="line"/>
      <point x="6.0" y="1010.3963963963964" type="line"/>
      <point x="6.0" y="1052.1171171171172" type="line"/>
      <point x="52.81981981981982" y="1680.0" type="line"/>
      <point x="51.81981981981982" y="1680.0" type="line"/>
      <point x="4.0" y="1051.1171171171172" type="line"/>
      <point x="4.0" y="556.6846846846847" type="line"/>
      <point x="82.0" y="556.6846846846847" type="line"/>
    </contour>
  </outline>
</glyph>
<glyph name="five" format="2">
  <advance width="130.0"/>
  <unicode hex="0035"/>
  <outline>
    <contour>
      <point x="21.01801801801802" y="0.0" type="line" identifier="09VlJ0BjUX"/>
      <point x="110.0" y="0.0" type="line" identifier="EagWihqFM8"/>
      <point x="110.0" y="995.2162162162163" type="line" identifier="KfNuQA7eZe"/>
      <point x="22.0" y="1048.6756756756756" type="line" identifier="At364YZFEy"/>
      <point x="22.0" y="1146.2882882882882" type="line" identifier="BcuLfvaQKC"/>
      <point x="110.0" y="1146.2882882882882" type="line" identifier="3ZUkG35meB"/>
      <point x="110.0" y="1600.0" type="line" identifier="SaF9ojRFrW"/>
      <point x="20.0" y="1600.0" type="line" identifier="F4sQEYelA8"/>
      <point x="20.0" y="653.8828828828829" type="line" identifier="3sQ8t8BZ6b"/>
      <point x="108.0" y="600.4234234234234" type="line" identifier="yiV6OCBLHg"/>
      <point x="108.0" y="453.7117117117117" type="line" identifier="9kdl9SYsn8"/>
      <point x="23.01801801801802" y="453.7117117117117" type="line" identifier="yZDWuX8LLe"/>
      <point x="23.01801801801802" y="547.4144144144144" type="line" identifier="jYb9001DTm"/>
      <point x="21.01801801801802" y="547.4144144144144" type="line" identifier="ho4DrS0rdW"/>
    </contour>
  </outline>
</glyph>
<glyph name="seven" format="2">
  <advance width="123.0"/>
  <unicode hex="0037"/>
  <outline>
    <contour>
      <point x="42.36036036036036" y="0.0" type="line"/>
      <point x="44.36036036036036" y="0.0" type="line" identifier="PiPrv7Kcoy"/>
      <point x="107.0" y="1137.4864864864865" type="line" identifier="PkvwNC9Tx1"/>
      <point x="107.0" y="1600.0" type="line" identifier="tgqM27bPOm"/>
      <point x="12.0" y="1600.0" type="line" identifier="36ml4xRICt"/>
      <point x="12.0" y="908.2882882882883" type="line" identifier="aaDZsh5Mah"/>
      <point x="14.0" y="908.2882882882883" type="line"/>
      <point x="14.0" y="1146.2882882882882" type="line"/>
      <point x="105.0" y="1146.2882882882882" type="line"/>
      <point x="105.0" y="1134.6306306306305" type="line"/>
    </contour>
  </outline>
</glyph>
<glyph name="eight" format="2">
  <advance width="160.0"/>
  <unicode hex="0038"/>
  <outline>
    <contour>
      <point x="86.18018018018017" y="622.2432432432432" type="line"/>
      <point x="132.0" y="556.6036036036036" type="line"/>
      <point x="132.0" y="453.7117117117117" type="line"/>
      <point x="28.0" y="453.7117117117117" type="line"/>
      <point x="28.0" y="556.6036036036036" type="line"/>
      <point x="73.81981981981983" y="622.2432432432432" type="line"/>
    </contour>
    <contour>
      <point x="89.16216216216216" y="799.0" type="line"/>
      <point x="89.16216216216216" y="801.0" type="line"/>
      <point x="131.0" y="843.0" type="line"/>
      <point x="131.0" y="1600.0" type="line"/>
      <point x="29.0" y="1600.0" type="line"/>
      <point x="29.0" y="843.0" type="line"/>
      <point x="72.8018018018018" y="801.0" type="line"/>
      <point x="72.8018018018018" y="799.0" type="line"/>
      <point x="26.0" y="754.0" type="line"/>
      <point x="26.0" y="0.0" type="line"/>
      <point x="134.0" y="0.0" type="line"/>
      <point x="134.0" y="754.0" type="line"/>
    </contour>
    <contour>
      <point x="73.81981981981983" y="977.7567567567568" type="line"/>
      <point x="31.0" y="1040.3963963963963" type="line"/>
      <point x="31.0" y="1146.2882882882882" type="line"/>
      <point x="129.0" y="1146.2882882882882" type="line"/>
      <point x="129.0" y="1040.3963963963963" type="line"/>
      <point x="86.18018018018017" y="977.7567567567568" type="line"/>
    </contour>
  </outline>
</glyph>
<glyph name="B" format="2">
  <advance width="123.48648648648648"/>
  <unicode hex="0042"/>
  <outline>
    <contour>
      <point x="16.306306306306308" y="0.0" type="line" identifier="hvY9r8RmLr"/>
      <point x="112.30630630630631" y="0.0" type="line" identifier="9QFpw7nfq7"/>
      <point x="112.30630630630631" y="762.0" type="line" identifier="543PerILpr"/>
      <point x="78.30630630630631" y="799.0" type="line" identifier="zhomauHW30"/>
      <point x="78.30630630630631" y="801.0" type="line" identifier="870ZhtaozS"/>
      <point x="109.30630630630631" y="843.0" type="line" identifier="eGKH52Jgnk"/>
      <point x="109.30630630630631" y="1600.0" type="line" identifier="FaP204GrdB"/>
      <point x="16.306306306306308" y="1600.0" type="line" identifier="JEev70GAj6"/>
    </contour>
    <contour>
      <point x="18.306306306306308" y="997.3963963963964" type="line" identifier="By7dfMihfe"/>
      <point x="18.306306306306308" y="1144.3243243243244" type="line" identifier="1p5hKrurVy"/>
      <point x="107.30630630630631" y="1144.3243243243244" type="line" identifier="Qby8aMtF2X"/>
      <point x="107.30630630630631" y="1040.3963963963963" type="line" identifier="9lW01gQyU2"/>
      <point x="75.32432432432432" y="997.3963963963964" type="line" identifier="xpxyvIzPoc"/>
    </contour>
    <contour>
      <point x="18.306306306306308" y="453.7117117117117" type="line" identifier="jaMSiLrCua"/>
      <point x="18.306306306306308" y="602.6036036036036" type="line" identifier="XSrxNd2axx"/>
      <point x="75.32432432432432" y="602.6036036036036" type="line" identifier="VyYlzRh5nq"/>
      <point x="110.30630630630631" y="564.6036036036036" type="line" identifier="lsRGatjQja"/>
      <point x="110.30630630630631" y="453.7117117117117" type="line" identifier="xhlDJ3CjD5"/>
    </contour>
  </outline>
</glyph>
<glyph name="C" format="2">
  <advance width="115.46846846846847"/>
  <unicode hex="0043"/>
  <outline>
    <contour>
      <point x="11.252252252252253" y="0.0" type="line" identifier="7lPhzTnk2Z"/>
      <point x="107.25225225225225" y="0.0" type="line" identifier="qJVLZGnkwh"/>
      <point x="107.25225225225225" y="614.8648648648648" type="line" identifier="nDnDHzAMXL"/>
      <point x="105.25225225225225" y="614.8648648648648" type="line" identifier="QX1V08aTu0"/>
      <point x="105.25225225225225" y="453.7117117117117" type="line" identifier="Y750RHTvDj"/>
      <point x="13.252252252252253" y="453.7117117117117" type="line" identifier="L2LsGnXiZ2"/>
      <point x="13.252252252252253" y="972.927927927928" type="line" identifier="sUWsr03vF4"/>
      <point x="24.84684684684685" y="1146.2882882882882" type="line" identifier="dbOUe6OhxL"/>
      <point x="104.25225225225225" y="1146.2882882882882" type="line" identifier="5BjRbcud80"/>
      <point x="104.25225225225225" y="829.6666666666667" type="line" identifier="fNVDqwQo2o"/>
      <point x="106.25225225225225" y="829.6666666666667" type="line" identifier="wLqQQx7QVN"/>
      <point x="106.25225225225225" y="1600.0" type="line" identifier="9eJelv8BOw"/>
      <point x="55.252252252252255" y="1600.0" type="line" identifier="lfZev3ICaC"/>
      <point x="11.252252252252253" y="972.9459459459459" type="line" identifier="V1EWIdPahq"/>
    </contour>
  </outline>
</glyph>
<glyph name="D" format="2">
  <advance width="139.2882882882883"/>
  <unicode hex="0044"/>
  <outline>
    <contour>
      <point x="20.234234234234236" y="0.0" type="line" identifier="gh4oopoKIn"/>
      <point x="120.23423423423424" y="0.0" type="line" identifier="wIy2omw5Da"/>
      <point x="120.23423423423424" y="1091.6846846846847" type="line" identifier="ydeACnPZN4"/>
      <point x="48.55855855855856" y="1600.0" type="line" identifier="IF8msvcgce"/>
      <point x="20.234234234234236" y="1600.0" type="line" identifier="hTYdJwlqIh"/>
    </contour>
    <contour>
      <point x="22.234234234234236" y="1146.2882882882882" type="line" identifier="YShvMHvurg"/>
      <point x="86.83783783783784" y="1146.2882882882882" type="line" identifier="DiLdvAK6bW"/>
      <point x="118.23423423423424" y="1090.6846846846847" type="line" identifier="5OFemp6E2Y"/>
      <point x="118.23423423423424" y="453.7117117117117" type="line" identifier="4w8cXO1HlF"/>
      <point x="22.234234234234236" y="453.7117117117117" type="line" identifier="OGdfzPVlic"/>
    </contour>
  </outline>
</glyph>
<glyph name="F" format="2">
  <advance width="137.981981981982"/>
  <unicode hex="0046"/>
  <outline>
    <contour>
      <point x="31.036036036036037" y="0.0" type="line" identifier="oAgH2tA6DJ"/>
      <point x="33.03603603603604" y="0.0" type="line" identifier="zCZyMcW5ho"/>
      <point x="33.03603603603604" y="317.8288288288289" type="line" identifier="yHYqkMd7LI"/>
      <point x="117.03603603603604" y="317.8288288288289" type="line" identifier="NmB7yyQuio"/>
      <point x="117.03603603603604" y="771.5405405405405" type="line" identifier="wQk2C8zPHh"/>
      <point x="33.03603603603604" y="771.5405405405405" type="line" identifier="4cFHKQfHDt"/>
      <point x="33.03603603603604" y="1146.2882882882882" type="line" identifier="ZvzwyrcwpS"/>
      <point x="116.03603603603604" y="1146.2882882882882" type="line" identifier="4E754ovOIe"/>
      <point x="116.03603603603604" y="869.0090090090091" type="line" identifier="vZkeT9KrKR"/>
      <point x="118.03603603603604" y="869.0090090090091" type="line" identifier="0tk7G4orz6"/>
      <point x="118.03603603603604" y="1600.0" type="line" identifier="NUrIjqOB7J"/>
      <point x="31.036036036036037" y="1600.0" type="line" identifier="TBAYuCfUFX"/>
    </contour>
  </outline>
</glyph>
<glyph name="M" format="2">
  <advance width="224.07207207207207"/>
  <unicode hex="004D"/>
  <outline>
    <contour>
      <point x="110.96396396396396" y="80.0" type="line" identifier="0Dn4Xpf57M"/>
      <point x="73.56756756756756" y="1146.2882882882882" type="line"/>
      <point x="33.03603603603604" y="1146.2882882882882" type="line"/>
      <point x="33.03603603603604" y="0.0" type="line"/>
      <point x="31.036036036036037" y="0.0" type="line"/>
      <point x="31.036036036036037" y="1600.0" type="line"/>
      <point x="58.873873873873876" y="1600.0" type="line"/>
      <point x="100.1981981981982" y="494.4324324324324" type="line"/>
      <point x="123.87387387387388" y="494.4324324324324" type="line" identifier="9aKZPM0HPh"/>
      <point x="165.1981981981982" y="1600.0" type="line"/>
      <point x="193.03603603603602" y="1600.0" type="line"/>
      <point x="193.03603603603602" y="0.0" type="line"/>
      <point x="191.03603603603602" y="0.0" type="line"/>
      <point x="191.03603603603602" y="1146.2882882882882" type="line"/>
      <point x="150.5045045045045" y="1146.2882882882882" type="line"/>
      <point x="113.10810810810811" y="80.0" type="line" identifier="spdoeeCFft"/>
    </contour>
  </outline>
</glyph>
<glyph name="N" format="2">
  <advance width="167.25225225225225"/>
  <unicode hex="004E"/>
  <outline>
    <contour>
      <point x="27.10810810810811" y="0.0" type="line" identifier="CkwYPPvJLv"/>
      <point x="29.10810810810811" y="0.0" type="line" identifier="oHTJsN7drZ"/>
      <point x="29.10810810810811" y="1175.7477477477478" type="line" identifier="wfBbYd10Pm"/>
      <point x="62.729729729729726" y="1175.7477477477478" type="line" identifier="MEnBDHq6zU"/>
      <point x="120.14414414414415" y="0.0" type="line" identifier="3Nbopwznvn"/>
      <point x="140.14414414414415" y="0.0" type="line" identifier="uKfuudIUvA"/>
      <point x="140.14414414414415" y="1600.0" type="line" identifier="XRdLFXiM4t"/>
      <point x="138.14414414414415" y="1600.0" type="line" identifier="MUSJPjCIXg"/>
      <point x="138.14414414414415" y="424.2522522522522" type="line" identifier="VILP20cFmq"/>
      <point x="101.52252252252252" y="424.2522522522522" type="line" identifier="z5b04GDwRN"/>
      <point x="44.10810810810811" y="1600.0" type="line" identifier="LL64NQ6WBE"/>
      <point x="27.10810810810811" y="1600.0" type="line" identifier="dzUaaP1sjt"/>
    </contour>
  </outline>
</glyph>
<glyph name="O" format="2">
  <advance width="150.03603603603602"/>
  <unicode hex="004F"/>
  <outline>
    <contour>
      <point x="124.01801801801801" y="488.87387387387383" type="line" identifier="ob8US3C311"/>
      <point x="124.01801801801801" y="1600.0" type="line" identifier="c9brEFyXXA"/>
      <point x="60.01801801801802" y="1600.0" type="line" identifier="a4Ql951bxG"/>
      <point x="26.01801801801802" y="1103.144144144144" type="line" identifier="kbL68Qh2zr"/>
      <point x="26.01801801801802" y="0.0" type="line" identifier="U6WibAQAUl"/>
      <point x="91.01801801801801" y="0.0" type="line" identifier="dfgNHTgBfR"/>
    </contour>
    <contour>
      <point x="122.01801801801801" y="490.8378378378378" type="line" identifier="SnrsQD5TLy"/>
      <point x="120.44144144144144" y="453.7117117117117" type="line" identifier="jjd5iRDXWT"/>
      <point x="28.01801801801802" y="453.7117117117117" type="line" identifier="YbQKHpAtYn"/>
      <point x="28.01801801801802" y="1104.1081081081081" type="line" identifier="vdfGLkskOQ"/>
      <point x="30.594594594594597" y="1146.2882882882882" type="line" identifier="qXlVxK5ShE"/>
      <point x="122.01801801801801" y="1146.2882882882882" type="line" identifier="g70r2r6DwY"/>
    </contour>
  </outline>
</glyph>
<glyph name="P" format="2">
  <advance width="142.03603603603602"/>
  <unicode hex="0050"/>
  <outline>
    <contour>
      <point x="31.036036036036037" y="0.0" type="line" identifier="EG08jqU5fb"/>
      <point x="33.03603603603604" y="0.0" type="line" identifier="osRzIFK2Cu"/>
      <point x="33.03603603603604" y="534.963963963964" type="line" identifier="hIFVovVRwe"/>
      <point x="123.03603603603604" y="602.6036036036036" type="line" identifier="Tt6D8zYZmU"/>
      <point x="123.03603603603604" y="1600.0" type="line" identifier="6xW04auDFu"/>
      <point x="31.036036036036037" y="1600.0" type="line" identifier="eETO5GBD5v"/>
    </contour>
    <contour>
      <point x="33.03603603603604" y="929.7567567567568" type="line" identifier="PIBVN1PGv1"/>
      <point x="33.03603603603604" y="1146.2882882882882" type="line" identifier="IZIZQr2gYJ"/>
      <point x="121.03603603603604" y="1146.2882882882882" type="line" identifier="2c4LCF1E1R"/>
      <point x="121.03603603603604" y="970.8648648648649" type="line" identifier="1WCnzth1GX"/>
    </contour>
  </outline>
</glyph>
<glyph name="Q" format="2">
  <advance width="150.14414414414415"/>
  <unicode hex="0051"/>
  <outline>
    <contour>
      <point x="124.01801801801801" y="1600.0" type="line" identifier="c9brEFyXXA"/>
      <point x="60.01801801801802" y="1600.0" type="line" identifier="a4Ql951bxG"/>
      <point x="26.01801801801802" y="1020.081081081081" type="line" identifier="kbL68Qh2zr"/>
      <point x="26.01801801801802" y="0.0" type="line" identifier="U6WibAQAUl"/>
      <point x="124.01801801801801" y="0.0" type="line" identifier="dfgNHTgBfR"/>
    </contour>
    <contour>
      <point x="122.01801801801801" y="453.7117117117117" type="line" identifier="jjd5iRDXWT"/>
      <point x="28.01801801801802" y="453.7117117117117" type="line" identifier="YbQKHpAtYn"/>
      <point x="28.01801801801802" y="1021.081081081081" type="line" identifier="vdfGLkskOQ"/>
      <point x="35.50450450450451" y="1146.2882882882882" type="line" identifier="qXlVxK5ShE"/>
      <point x="122.01801801801801" y="1146.2882882882882" type="line" identifier="g70r2r6DwY"/>
    </contour>
    <contour>
      <point x="75.01801801801801" y="-295.2972972972973" type="line"/>
      <point x="77.01801801801801" y="-295.2972972972973" type="line"/>
      <point x="77.01801801801801" y="2.0" type="line"/>
      <point x="75.01801801801801" y="2.0" type="line"/>
    </contour>
  </outline>
</glyph>
<glyph name="S" format="2">
  <advance width="130.21621621621622"/>
  <unicode hex="0053"/>
  <outline>
    <contour>
      <point x="20.07207207207207" y="0.0" type="line" identifier="09VlJ0BjUX"/>
      <point x="110.09009009009009" y="0.0" type="line" identifier="EagWihqFM8"/>
      <point x="110.09009009009009" y="1011.2882882882883" type="line" identifier="KfNuQA7eZe"/>
      <point x="22.09009009009009" y="1011.2882882882883" type="line" identifier="At364YZFEy"/>
      <point x="22.09009009009009" y="1175.7477477477478" type="line" identifier="BcuLfvaQKC"/>
      <point x="108.09009009009009" y="1175.7477477477478" type="line" identifier="3ZUkG35meB"/>
      <point x="108.09009009009009" y="1066.3873873873874" type="line" identifier="DTOJhFIl15"/>
      <point x="110.09009009009009" y="1066.3873873873874" type="line" identifier="9KDcrfQ5Ui"/>
      <point x="110.09009009009009" y="1600.0" type="line" identifier="SaF9ojRFrW"/>
      <point x="20.09009009009009" y="1600.0" type="line" identifier="F4sQEYelA8"/>
      <point x="20.09009009009009" y="606.6756756756756" type="line" identifier="3sQ8t8BZ6b"/>
      <point x="108.09009009009009" y="606.6756756756756" type="line" identifier="yiV6OCBLHg"/>
      <point x="108.09009009009009" y="453.7117117117117" type="line" identifier="9kdl9SYsn8"/>
      <point x="21.09009009009009" y="453.7117117117117" type="line" identifier="yZDWuX8LLe"/>
      <point x="21.09009009009009" y="551.3423423423424" type="line" identifier="jYb9001DTm"/>
      <point x="20.07207207207207" y="551.3423423423424" type="line" identifier="ho4DrS0rdW"/>
    </contour>
  </outline>
</glyph>
<glyph name="X" format="2">
  <advance width="160.0"/>
  <unicode hex="0058"/>
  <outline>
    <contour>
      <point x="86.18018018018017" y="573.1441441441441" type="line"/>
      <point x="132.0" y="527.1441441441441" type="line"/>
      <point x="132.0" y="0.0" type="line"/>
      <point x="134.0" y="0.0" type="line"/>
      <point x="134.0" y="754.0" type="line"/>
      <point x="88.18018018018017" y="799.0" type="line"/>
      <point x="88.18018018018017" y="801.0" type="line"/>
      <point x="130.0" y="843.0" type="line"/>
      <point x="130.0" y="1600.0" type="line"/>
      <point x="128.981981981982" y="1600.0" type="line"/>
      <point x="128.981981981982" y="1069.855855855856" type="line"/>
      <point x="86.18018018018017" y="1026.855855855856" type="line"/>
      <point x="73.81981981981983" y="1026.855855855856" type="line"/>
      <point x="31.01801801801802" y="1069.855855855856" type="line"/>
      <point x="31.01801801801802" y="1600.0" type="line"/>
      <point x="30.0" y="1600.0" type="line"/>
      <point x="30.0" y="843.0" type="line"/>
      <point x="71.81981981981983" y="801.0" type="line"/>
      <point x="71.81981981981983" y="799.0" type="line"/>
      <point x="26.0" y="754.0" type="line"/>
      <point x="26.0" y="0.0" type="line"/>
      <point x="28.0" y="0.0" type="line"/>
      <point x="28.0" y="527.1441441441441" type="line"/>
      <point x="73.81981981981983" y="573.1441441441441" type="line"/>
    </contour>
  </outline>
</glyph>
<glyph name="Z" format="2">
  <advance width="119.0"/>
  <unicode hex="005A"/>
  <outline>
    <contour>
      <point x="12.0" y="0.0" type="line"/>
      <point x="108.0" y="0.0" type="line" identifier="pzdvPTirLJ"/>
      <point x="108.0" y="811.5495495495495" type="line" identifier="91SxUS0iwG"/>
      <point x="106.0" y="811.5495495495495" type="line"/>
      <point x="106.0" y="453.7117117117117" type="line"/>
      <point x="14.0" y="453.7117117117117" type="line"/>
      <point x="14.0" y="584.5135135135135" type="line"/>
      <point x="120.69369369369369" y="1145.963963963964" type="line" identifier="yyb1NCCI5w"/>
      <point x="120.69369369369369" y="1600.0" type="line" identifier="5FogYRSgkk"/>
      <point x="15.0" y="1600.0" type="line" identifier="svlFvrau4c"/>
      <point x="15.0" y="859.1891891891892" type="line" identifier="LQ9fBsTy9K"/>
      <point x="17.0" y="859.1891891891892" type="line"/>
      <point x="17.0" y="1146.2882882882882" type="line"/>
      <point x="114.76576576576576" y="1146.2882882882882" type="line"/>
      <point x="114.76576576576576" y="1128.2882882882882" type="line"/>
      <point x="12.0" y="587.5135135135135" type="line" identifier="teVKnpBcVb"/>
    </contour>
  </outline>
</glyph>
<glyph name="E.wide" format="2">
  <advance width="139.0900900900901"/>
  <outline>
    <contour>
      <point x="31.036036036036037" y="0.0" type="line" identifier="fZynkQ4XHB"/>
      <point x="120.03603603603604" y="0.0" type="line" identifier="FAQNpgUPxV"/>
      <point x="120.03603603603604" y="435.05405405405406" type="line" identifier="5cgTYOhATF"/>
      <point x="33.03603603603604" y="435.05405405405406" type="line" identifier="bWs42DaCgU"/>
      <point x="33.03603603603604" y="592.7837837837837" type="line" identifier="VtD2aADJmn"/>
      <point x="118.92792792792793" y="592.7837837837837" type="line" identifier="PpbsFdHAnS"/>
      <point x="118.92792792792793" y="1008.1981981981982" type="line" identifier="8WuC5p8Ax5"/>
      <point x="33.03603603603604" y="1008.1981981981982" type="line" identifier="m39IWn9ntA"/>
      <point x="33.03603603603604" y="1175.7477477477478" type="line" identifier="gQ21I4SHQg"/>
      <point x="119.03603603603604" y="1175.7477477477478" type="line" identifier="eqNb2VTwYs"/>
      <point x="119.03603603603604" y="1600.0" type="line" identifier="qYRmo14Il5"/>
      <point x="31.036036036036037" y="1600.0" type="line" identifier="HmJIcnLWfC"/>
    </contour>
  </outline>
</glyph>
<glyph name="F.wide" format="2">
  <advance width="137.981981981982"/>
  <outline>
    <contour>
      <point x="31.036036036036037" y="0.0" type="line" identifier="oAgH2tA6DJ"/>
      <point x="33.03603603603604" y="0.0" type="line" identifier="zCZyMcW5ho"/>
      <point x="33.03603603603604" y="317.8288288288289" type="line" identifier="yHYqkMd7LI"/>
      <point x="117.03603603603604" y="317.8288288288289" type="line" identifier="NmB7yyQuio"/>
      <point x="117.03603603603604" y="771.5405405405405" type="line" identifier="wQk2C8zPHh"/>
      <point x="33.03603603603604" y="771.5405405405405" type="line" identifier="4cFHKQfHDt"/>
      <point x="33.03603603603604" y="1146.2882882882882" type="line" identifier="ZvzwyrcwpS"/>
      <point x="118.03603603603604" y="1146.2882882882882" type="line" identifier="4E754ovOIe"/>
      <point x="118.03603603603604" y="1600.0" type="line" identifier="NUrIjqOB7J"/>
      <point x="31.036036036036037" y="1600.0" type="line" identifier="TBAYuCfUFX"/>
    </contour>
  </outline>
</glyph>
<glyph name="G.wide" format="2">
  <advance width="115"/>
  <outline>
    <contour>
      <point x="11" y="0" type="line" identifier="7lPhzTnk2Z"/>
      <point x="107" y="0" type="line" identifier="qJVLZGnkwh"/>
      <point x="107" y="938" type="line" identifier="uek1NNj7De"/>
      <point x="45" y="938" type="line" identifier="qcvimxjndX"/>
      <point x="45" y="573" type="line" identifier="EARaY3Su65"/>
      <point x="105" y="573" type="line" identifier="4m6dHLVhZq"/>
      <point x="105" y="454" type="line" identifier="Y750RHTvDj"/>
      <point x="13" y="454" type="line" identifier="L2LsGnXiZ2"/>
      <point x="13" y="1051" type="line" identifier="sUWsr03vF4"/>
      <point x="21" y="1146" type="line" identifier="dbOUe6OhxL"/>
      <point x="106" y="1146" type="line" identifier="5BjRbcud80"/>
      <point x="106" y="1600" type="line" identifier="9eJelv8BOw"/>
      <point x="55" y="1600" type="line" identifier="lfZev3ICaC"/>
      <point x="11" y="1052" type="line" identifier="V1EWIdPahq"/>
    </contour>
  </outline>
</glyph>
<glyph name="K.alt" format="2">
  <advance width="128.2882882882883"/>
  <outline>
    <contour>
      <point x="18.306306306306308" y="0.0" type="line" identifier="wmNm7XZsaF"/>
      <point x="18.306306306306308" y="573.1441441441441" type="line" identifier="O22liaP9Qk"/>
      <point x="64.48648648648648" y="573.1441441441441" type="line" identifier="ELFBWIb1vd"/>
      <point x="110.30630630630631" y="527.5045045045046" type="line" identifier="DzXo67YEfw"/>
      <point x="110.30630630630631" y="0.0" type="line" identifier="aKpYWD78l2"/>
      <point x="112.30630630630631" y="0.0" type="line" identifier="ChS7KlqGi6"/>
      <point x="112.30630630630631" y="754.3603603603603" type="line" identifier="sWLgkU8Vey"/>
      <point x="66.50450450450451" y="799.0" type="line" identifier="Of0iQc0wBG"/>
      <point x="66.50450450450451" y="801.0" type="line" identifier="j4jnmtDJYB"/>
      <point x="109.30630630630631" y="1600.0" type="line" identifier="dMJ1ywOKQQ"/>
      <point x="107.30630630630631" y="1600.0" type="line" identifier="08OWjR2YBJ"/>
      <point x="76.28828828828829" y="1026.855855855856" type="line" identifier="g4YLdZEoM3"/>
      <point x="18.306306306306308" y="1026.855855855856" type="line" identifier="uZuki3Isec"/>
      <point x="18.306306306306308" y="1600.0" type="line" identifier="nRfcNgqJ4H"/>
      <point x="16.306306306306308" y="1600.0" type="line" identifier="3XJlWt89ad"/>
      <point x="16.306306306306308" y="0.0" type="line" identifier="wdbO8kCovY"/>
    </contour>
  </outline>
</glyph>
<glyph name="R.alt" format="2">
  <advance width="154.0900900900901"/>
  <outline>
    <contour>
      <point x="33.03603603603604" y="928.6576576576576" type="line"/>
      <point x="33.03603603603604" y="1146.2882882882882" type="line"/>
      <point x="122.03603603603604" y="1146.2882882882882" type="line"/>
      <point x="122.03603603603604" y="928.6576576576576" type="line"/>
    </contour>
    <contour>
      <point x="137.0" y="0.0" type="line"/>
      <point x="85.12612612612612" y="592.7837837837837" type="line"/>
      <point x="124.03603603603604" y="651.7027027027027" type="line"/>
      <point x="124.03603603603604" y="1600.0" type="line"/>
      <point x="31.036036036036037" y="1600.0" type="line"/>
      <point x="31.036036036036037" y="0.0" type="line"/>
      <point x="33.03603603603604" y="0.0" type="line"/>
      <point x="33.03603603603604" y="474.94594594594594" type="line"/>
      <point x="92.94594594594595" y="474.94594594594594" type="line"/>
      <point x="135.0" y="0.0" type="line"/>
    </contour>
  </outline>
</glyph>
<glyph name="S.alt" format="2">
  <advance width="130.0"/>
  <outline>
    <contour>
      <point x="17.0" y="0.0" type="line" identifier="09VlJ0BjUX"/>
      <point x="105.0" y="0.0" type="line" identifier="EagWihqFM8"/>
      <point x="105.0" y="997.3963963963964" type="line" identifier="KfNuQA7eZe"/>
      <point x="17.0" y="997.3963963963964" type="line" identifier="At364YZFEy"/>
      <point x="17.0" y="1059.3243243243244" type="line"/>
      <point x="23.612612612612615" y="1146.2882882882882" type="line"/>
      <point x="103.0" y="1146.2882882882882" type="line" identifier="3ZUkG35meB"/>
      <point x="103.0" y="1053.7837837837837" type="line" identifier="DTOJhFIl15"/>
      <point x="105.0" y="1053.7837837837837" type="line" identifier="9KDcrfQ5Ui"/>
      <point x="105.0" y="1600.0" type="line" identifier="SaF9ojRFrW"/>
      <point x="55.0" y="1600.0" type="line"/>
      <point x="15.0" y="1059.3243243243244" type="line"/>
      <point x="15.0" y="602.6036036036036" type="line" identifier="3sQ8t8BZ6b"/>
      <point x="103.0" y="602.6036036036036" type="line" identifier="yiV6OCBLHg"/>
      <point x="103.0" y="453.7117117117117" type="line" identifier="9kdl9SYsn8"/>
      <point x="19.0" y="453.7117117117117" type="line" identifier="yZDWuX8LLe"/>
      <point x="19.0" y="546.4324324324324" type="line" identifier="jYb9001DTm"/>
      <point x="17.0" y="546.4324324324324" type="line" identifier="ho4DrS0rdW"/>
    </contour>
  </outline>
</glyph>
<glyph name="Z.wide" format="2">
  <advance width="119.0"/>
  <outline>
    <contour>
      <point x="12.0" y="0.0" type="line"/>
      <point x="108.0" y="0.0" type="line" identifier="pzdvPTirLJ"/>
      <point x="108.0" y="453.7117117117117" type="line"/>
      <point x="14.0" y="453.7117117117117" type="line"/>
      <point x="14.0" y="584.5135135135135" type="line"/>
      <point x="120.69369369369369" y="1144.162162162162" type="line" identifier="yyb1NCCI5w"/>
      <point x="120.69369369369369" y="1600.0" type="line" identifier="5FogYRSgkk"/>
      <point x="15.0" y="1600.0" type="line" identifier="svlFvrau4c"/>
      <point x="15.0" y="1146.2882882882882" type="line"/>
      <point x="114.76576576576576" y="1146.2882882882882" type="line"/>
      <point x="114.76576576576576" y="1126.4864864864865" type="line"/>
      <point x="12.0" y="587.5135135135135" type="line" identifier="teVKnpBcVb"/>
    </contour>
  </outline>
</glyph>
